<?xml version="1.0" encoding="UTF-8" standalone="no"?>
<!-- Created with Inkscape (http://www.inkscape.org/) -->

<svg
   width="210mm"
   height="210mm"
   viewBox="0 0 210 210"
   version="1.1"
   id="svg1"
   xml:space="preserve"
   inkscape:version="1.3.2 (091e20e, 2023-11-25, custom)"
   sodipodi:docname="logo.svg"
   xmlns:inkscape="http://www.inkscape.org/namespaces/inkscape"
   xmlns:sodipodi="http://sodipodi.sourceforge.net/DTD/sodipodi-0.dtd"
   xmlns="http://www.w3.org/2000/svg"
   xmlns:svg="http://www.w3.org/2000/svg"><sodipodi:namedview
     id="namedview1"
     pagecolor="#ffffff"
     bordercolor="#000000"
     borderopacity="0.25"
     inkscape:showpageshadow="2"
     inkscape:pageopacity="0.0"
     inkscape:pagecheckerboard="0"
     inkscape:deskcolor="#d1d1d1"
     inkscape:document-units="mm"
     inkscape:zoom="0.76167929"
     inkscape:cx="263.89059"
     inkscape:cy="431.28388"
     inkscape:window-width="1920"
     inkscape:window-height="1111"
     inkscape:window-x="-9"
     inkscape:window-y="-9"
     inkscape:window-maximized="1"
     inkscape:current-layer="g1"
     showgrid="true"><inkscape:grid
       id="grid36"
       units="mm"
       originx="0"
       originy="0"
       spacingx="4.9999999"
       spacingy="4.9999999"
       empcolor="#0099e5"
       empopacity="0.30196078"
       color="#0099e5"
       opacity="0.14901961"
       empspacing="5"
       dotted="false"
       gridanglex="30"
       gridanglez="30"
       visible="true" /></sodipodi:namedview><defs
     id="defs1" /><g
     inkscape:label="Layer 1"
     inkscape:groupmode="layer"
     id="layer1"><g
       id="g1"
       transform="matrix(11.722884,0,0,11.722884,7.8050464,99.922452)"><path
         d="m 2.746334,-2.1259658 11.089422,-1.2795486 0,7.2507756 -11.089422,1.7060649 z"
         fill="#1e0c00"
         stroke="#1e0c00"
         stroke-linecap="round"
         stroke-linejoin="round"
         id="path1"
         style="fill:#000000;stroke:#000000;stroke-width:1.60099;stroke-opacity:1"
         inkscape:label="path1"
         sodipodi:nodetypes="ccccc" /><g
         id="g2"
         transform="matrix(0.00689021,0,0,0.00689021,3.6173298,-6.6955286)"
         inkscape:label="Godot"><g
           fill="#ffffff"
           id="g4"><path
             d="M 121.19646,663.19645 105,706 c 271.33333,236 542.66667,236 814,0 v -33 z"
             id="path1-5"
             sodipodi:nodetypes="ccccc" /><path
             fill="#478cbf"
             d="m 104.08715,710.42665 57.36839,16.43426 C 169.45554,727.52757 274,759.33333 276,768 v 0 l 132,10 8,-61 c 1.33333,-7.33333 6.33333,-12.33333 15,-15 h 162 c 8.66667,2.66667 13.66667,7.66667 15,15 l 8,61 132,-10 4,-67 c 2,-8.66667 7,-13.33333 15,-14 L 919,673 V 427 c 20,-26 38.66667,-53 56,-81 -23.33333,-39.33333 -51,-75.33333 -83,-108 -28.66667,13.33333 -56,29 -82,47 -26.66667,-24.66667 -56,-46 -88,-64 4.66667,-34 7.33333,-68 8,-102 -39.33333,-18.66667 -80.33333,-32.666667 -123,-42 -17.33333,28.66667 -32.66667,58.33333 -46,89 -32.66667,-4.66667 -65.33333,-4.66667 -98,0 -13.33333,-30.66667 -28.66667,-60.33333 -46,-89 -42.66667,9.333333 -83.66667,23.33333 -123,42 0.66667,34 3.33333,68 8,102 -32,18 -61.33333,39.33333 -88,64 -26,-18 -53.33333,-33.66667 -82,-47 -32,32.66667 -59.666667,68.66667 -83,108 17.333333,28 36,55 56,81 z M 105,706 v 39 c 0,276 813,276 813,0 v -39 l -134,12 -5,69 c -1.33333,6.66667 -6,11 -14,13 l -162,11 c -8,0 -13.33333,-3.66667 -16,-11 L 577,735 H 447 l -10,65 c -2.66667,7.33333 -8,11 -16,11 L 259,800 c -8,-2 -12.66667,-6.33333 -14,-13 l 31,-19 z"
             id="path2-2"
             sodipodi:nodetypes="ccccccccccccccccccccccccccccccccsscccccccccccccc" /><path
             d="m 483,600 c 3,34 55,34 58,0 v -86 c -3,-34 -55,-34 -58,0 z"
             id="path3-0" /><circle
             cx="725"
             cy="526"
             r="90"
             id="circle3-1" /><circle
             cx="299"
             cy="526"
             r="90"
             id="circle4" /></g><g
           fill="#414042"
           id="g6"><circle
             cx="307"
             cy="532"
             r="60"
             id="circle5" /><circle
             cx="717"
             cy="532"
             r="60"
             id="circle6" /></g></g><path
         d="M 1.0402691,-0.41990092 12.129691,-1.6994496 13.835756,4.2717774 2.746334,5.5513261 Z"
         fill="#341400"
         stroke="#341400"
         stroke-linecap="round"
         stroke-linejoin="round"
         id="path2"
         style="stroke-width:1.60099;fill:#983b00;fill-opacity:1;stroke:#993b00;stroke-opacity:1"
         sodipodi:nodetypes="ccccc" /><path
         d="M 13.409239,0.85964772 15.54182,0.43313151"
         fill="#341400"
         stroke="#341400"
         stroke-width="2.40148"
         stroke-linecap="round"
         stroke-linejoin="round"
         id="path3"
         style="fill:#ff5607;fill-opacity:1;stroke:#993b00;stroke-opacity:1"
         sodipodi:nodetypes="cc" /><circle
         cx="15.541821"
         cy="0.43313152"
         r="0.64039469"
         fill="#ffae00"
         id="circle3"
         style="stroke-width:1.60099" /><path
         d="m 22.357733,49.144236 0,131.377044 m 2.645834,-131.377044 0,131.377044 M 27.6494,49.144236 l 0,131.377044 m 2.645833,-131.377044 0,131.377044 m 2.645833,-131.377044 0,131.377044 M 35.5869,49.144236 l 0,131.377044 m 2.645833,-131.377044 0,131.377044 m 2.645833,-131.377044 0,131.377044 M 43.5244,49.144236 l 0,131.377044 m 2.645833,-131.377044 0,131.377044 m 2.645833,-131.377044 0,131.377044 m 2.645833,-131.377044 0,131.377044 m 2.645834,-131.377044 0,131.377044 m 2.645833,-131.377044 0,131.377044 m 2.645833,-131.377044 0,131.377044 m 2.645833,-131.377044 0,131.377044 m 2.645834,-131.377044 0,131.377044 m 2.645833,-131.377044 0,131.377044 m 2.645833,-131.377044 0,131.377044 m 2.645834,-131.377044 0,131.377044 m 2.645833,-131.377044 0,131.377044 m 2.645833,-131.377044 0,131.377044 m 2.645833,-131.377044 0,131.377044 m 2.645834,-131.377044 0,131.377044 m 2.645833,-131.377044 0,131.377044 m 2.645833,-131.377044 0,131.377044 m 2.645833,-131.377044 0,131.377044 m 2.645834,-131.377044 0,131.377044 m 2.645833,-131.377044 0,131.377044 m 2.645833,-131.377044 0,131.377044 m 2.645832,-131.377044 0,131.377044 m 2.64583,-131.377044 0,131.377044 m 2.64584,-131.377044 0,131.377044 m 2.64583,-131.377044 0,131.377044 m 2.64583,-131.377044 0,131.377044 m 2.64584,-131.377044 0,131.377044 m 2.64583,-131.377044 0,131.377044 m 2.64583,-131.377044 0,131.377044 m 2.64584,-131.377044 0,131.377044 m 2.64583,-131.377044 0,131.377044 m 2.64583,-131.377044 0,131.377044 m 2.64584,-131.377044 0,131.377044 m 2.64583,-131.377044 0,131.377044 m 2.64583,-131.377044 0,131.377044 m 2.64584,-131.377044 0,131.377044 m 2.64583,-131.377044 0,131.377044 m 2.64583,-131.377044 0,131.377044 m 2.64584,-131.377044 0,131.377044 m 2.64583,-131.377044 0,131.377044 m 2.64583,-131.377044 0,131.377044 m 2.64584,-131.377044 0,131.377044 m 2.64583,-131.377044 0,131.377044 m 2.64583,-131.377044 0,131.377044 m 2.64584,-131.377044 0,131.377044 m 2.64583,-131.377044 0,131.377044 m 2.64583,-131.377044 0,131.377044 m 2.64584,-131.377044 0,131.377044 m 2.64583,-131.377044 0,131.377044 m 2.64583,-131.377044 0,131.377044 m 2.64584,-131.377044 0,131.377044 m 2.64583,-131.377044 0,131.377044 M 22.357733,49.144236 l 159.529407,0 m -159.529407,2.645833 159.529407,0 m -159.529407,2.645833 159.529407,0 m -159.529407,2.645834 159.529407,0 m -159.529407,2.645833 159.529407,0 m -159.529407,2.645833 159.529407,0 m -159.529407,2.645833 159.529407,0 m -159.529407,2.645834 159.529407,0 m -159.529407,2.645833 159.529407,0 m -159.529407,2.645833 159.529407,0 m -159.529407,2.645833 159.529407,0 m -159.529407,2.645834 159.529407,0 m -159.529407,2.645833 159.529407,0 m -159.529407,2.645833 159.529407,0 m -159.529407,2.645834 159.529407,0 m -159.529407,2.645833 159.529407,0 m -159.529407,2.645833 159.529407,0 m -159.529407,2.645833 159.529407,0 m -159.529407,2.645834 159.529407,0 m -159.529407,2.645833 159.529407,0 m -159.529407,2.645832 159.529407,0 m -159.529407,2.64583 159.529407,0 m -159.529407,2.64584 159.529407,0 m -159.529407,2.64583 159.529407,0 m -159.529407,2.64583 159.529407,0 m -159.529407,2.64584 159.529407,0 m -159.529407,2.64583 159.529407,0 m -159.529407,2.64583 159.529407,0 m -159.529407,2.64584 159.529407,0 m -159.529407,2.64583 159.529407,0 m -159.529407,2.64583 159.529407,0 m -159.529407,2.64584 159.529407,0 m -159.529407,2.64583 159.529407,0 m -159.529407,2.64583 159.529407,0 m -159.529407,2.64584 159.529407,0 m -159.529407,2.64583 159.529407,0 m -159.529407,2.64583 159.529407,0 m -159.529407,2.64584 159.529407,0 m -159.529407,2.64583 159.529407,0 m -159.529407,2.64583 159.529407,0 m -159.529407,2.64584 159.529407,0 m -159.529407,2.64583 159.529407,0 m -159.529407,2.64583 159.529407,0 m -159.529407,2.64584 159.529407,0 m -159.529407,2.64583 159.529407,0 m -159.529407,2.64583 159.529407,0 m -159.529407,2.64584 159.529407,0 m -159.529407,2.64583 159.529407,0 m -159.529407,2.64583 159.529407,0 m -159.529407,2.64584 159.529407,0"
         style="fill:none;stroke:#000000;stroke-width:0.264583px"
         id="path5" /><path
         d="m 22.357733,49.144236 0,131.377044 m 2.645834,-131.377044 0,131.377044 M 27.6494,49.144236 l 0,131.377044 m 2.645833,-131.377044 0,131.377044 m 2.645833,-131.377044 0,131.377044 M 35.5869,49.144236 l 0,131.377044 m 2.645833,-131.377044 0,131.377044 m 2.645833,-131.377044 0,131.377044 M 43.5244,49.144236 l 0,131.377044 m 2.645833,-131.377044 0,131.377044 m 2.645833,-131.377044 0,131.377044 m 2.645833,-131.377044 0,131.377044 m 2.645834,-131.377044 0,131.377044 m 2.645833,-131.377044 0,131.377044 m 2.645833,-131.377044 0,131.377044 m 2.645833,-131.377044 0,131.377044 m 2.645834,-131.377044 0,131.377044 m 2.645833,-131.377044 0,131.377044 m 2.645833,-131.377044 0,131.377044 m 2.645834,-131.377044 0,131.377044 m 2.645833,-131.377044 0,131.377044 m 2.645833,-131.377044 0,131.377044 m 2.645833,-131.377044 0,131.377044 m 2.645834,-131.377044 0,131.377044 m 2.645833,-131.377044 0,131.377044 m 2.645833,-131.377044 0,131.377044 m 2.645833,-131.377044 0,131.377044 m 2.645834,-131.377044 0,131.377044 m 2.645833,-131.377044 0,131.377044 m 2.645833,-131.377044 0,131.377044 m 2.645832,-131.377044 0,131.377044 m 2.64583,-131.377044 0,131.377044 m 2.64584,-131.377044 0,131.377044 m 2.64583,-131.377044 0,131.377044 m 2.64583,-131.377044 0,131.377044 m 2.64584,-131.377044 0,131.377044 m 2.64583,-131.377044 0,131.377044 m 2.64583,-131.377044 0,131.377044 m 2.64584,-131.377044 0,131.377044 m 2.64583,-131.377044 0,131.377044 m 2.64583,-131.377044 0,131.377044 m 2.64584,-131.377044 0,131.377044 m 2.64583,-131.377044 0,131.377044 m 2.64583,-131.377044 0,131.377044 m 2.64584,-131.377044 0,131.377044 m 2.64583,-131.377044 0,131.377044 m 2.64583,-131.377044 0,131.377044 m 2.64584,-131.377044 0,131.377044 m 2.64583,-131.377044 0,131.377044 m 2.64583,-131.377044 0,131.377044 m 2.64584,-131.377044 0,131.377044 m 2.64583,-131.377044 0,131.377044 m 2.64583,-131.377044 0,131.377044 m 2.64584,-131.377044 0,131.377044 m 2.64583,-131.377044 0,131.377044 m 2.64583,-131.377044 0,131.377044 m 2.64584,-131.377044 0,131.377044 m 2.64583,-131.377044 0,131.377044 m 2.64583,-131.377044 0,131.377044 m 2.64584,-131.377044 0,131.377044 m 2.64583,-131.377044 0,131.377044 M 22.357733,49.144236 l 159.529407,0 m -159.529407,2.645833 159.529407,0 m -159.529407,2.645833 159.529407,0 m -159.529407,2.645834 159.529407,0 m -159.529407,2.645833 159.529407,0 m -159.529407,2.645833 159.529407,0 m -159.529407,2.645833 159.529407,0 m -159.529407,2.645834 159.529407,0 m -159.529407,2.645833 159.529407,0 m -159.529407,2.645833 159.529407,0 m -159.529407,2.645833 159.529407,0 m -159.529407,2.645834 159.529407,0 m -159.529407,2.645833 159.529407,0 m -159.529407,2.645833 159.529407,0 m -159.529407,2.645834 159.529407,0 m -159.529407,2.645833 159.529407,0 m -159.529407,2.645833 159.529407,0 m -159.529407,2.645833 159.529407,0 m -159.529407,2.645834 159.529407,0 m -159.529407,2.645833 159.529407,0 m -159.529407,2.645832 159.529407,0 m -159.529407,2.64583 159.529407,0 m -159.529407,2.64584 159.529407,0 m -159.529407,2.64583 159.529407,0 m -159.529407,2.64583 159.529407,0 m -159.529407,2.64584 159.529407,0 m -159.529407,2.64583 159.529407,0 m -159.529407,2.64583 159.529407,0 m -159.529407,2.64584 159.529407,0 m -159.529407,2.64583 159.529407,0 m -159.529407,2.64583 159.529407,0 m -159.529407,2.64584 159.529407,0 m -159.529407,2.64583 159.529407,0 m -159.529407,2.64583 159.529407,0 m -159.529407,2.64584 159.529407,0 m -159.529407,2.64583 159.529407,0 m -159.529407,2.64583 159.529407,0 m -159.529407,2.64584 159.529407,0 m -159.529407,2.64583 159.529407,0 m -159.529407,2.64583 159.529407,0 m -159.529407,2.64584 159.529407,0 m -159.529407,2.64583 159.529407,0 m -159.529407,2.64583 159.529407,0 m -159.529407,2.64584 159.529407,0 m -159.529407,2.64583 159.529407,0 m -159.529407,2.64583 159.529407,0 m -159.529407,2.64584 159.529407,0 m -159.529407,2.64583 159.529407,0 m -159.529407,2.64583 159.529407,0 m -159.529407,2.64584 159.529407,0"
         style="fill:none;stroke:#000000;stroke-width:0.264583px"
         id="path6" /><g
         inkscape:label="GridCartesian:X6:Y5"
         transform="translate(84.5211, 54.6289)"
         id="g36"><g
           inkscape:label="MajorXGridlines"
           id="g11"><path
             style="fill:none;stroke:#000000;stroke-width:0.26458333333333334"
             d="M 5 0 L 5 25"
             inkscape:label="MajorXDiv1"
             id="path7" /><path
             style="fill:none;stroke:#000000;stroke-width:0.26458333333333334"
             d="M 10 0 L 10 25"
             inkscape:label="MajorXDiv2"
             id="path8" /><path
             style="fill:none;stroke:#000000;stroke-width:0.26458333333333334"
             d="M 15 0 L 15 25"
             inkscape:label="MajorXDiv3"
             id="path9" /><path
             style="fill:none;stroke:#000000;stroke-width:0.26458333333333334"
             d="M 20 0 L 20 25"
             inkscape:label="MajorXDiv4"
             id="path10" /><path
             style="fill:none;stroke:#000000;stroke-width:0.26458333333333334"
             d="M 25 0 L 25 25"
             inkscape:label="MajorXDiv5"
             id="path11" /></g><g
           inkscape:label="MajorYGridlines"
           id="g15"><path
             style="fill:none;stroke:#000000;stroke-width:0.26458333333333334"
             d="M 0 5 L 30 5"
             inkscape:label="MajorYDiv1"
             id="path12" /><path
             style="fill:none;stroke:#000000;stroke-width:0.26458333333333334"
             d="M 0 10 L 30 10"
             inkscape:label="MajorYDiv2"
             id="path13" /><path
             style="fill:none;stroke:#000000;stroke-width:0.26458333333333334"
             d="M 0 15 L 30 15"
             inkscape:label="MajorYDiv3"
             id="path14" /><path
             style="fill:none;stroke:#000000;stroke-width:0.26458333333333334"
             d="M 0 20 L 30 20"
             inkscape:label="MajorYDiv4"
             id="path15" /></g><g
           inkscape:label="SubMinorYGridlines"
           id="g35"><path
             style="fill:none;stroke:#000000;stroke-width:0.079375"
             d="M 0 1 L 30 1"
             inkscape:label="SubminorXDiv0:0:1"
             id="path16" /><path
             style="fill:none;stroke:#000000;stroke-width:0.079375"
             d="M 0 2 L 30 2"
             inkscape:label="SubminorXDiv0:0:2"
             id="path17" /><path
             style="fill:none;stroke:#000000;stroke-width:0.079375"
             d="M 0 3 L 30 3"
             inkscape:label="SubminorXDiv0:0:3"
             id="path18" /><path
             style="fill:none;stroke:#000000;stroke-width:0.079375"
             d="M 0 4 L 30 4"
             inkscape:label="SubminorXDiv0:0:4"
             id="path19" /><path
             style="fill:none;stroke:#000000;stroke-width:0.079375"
             d="M 0 6 L 30 6"
             inkscape:label="SubminorXDiv1:0:1"
             id="path20" /><path
             style="fill:none;stroke:#000000;stroke-width:0.079375"
             d="M 0 7 L 30 7"
             inkscape:label="SubminorXDiv1:0:2"
             id="path21" /><path
             style="fill:none;stroke:#000000;stroke-width:0.079375"
             d="M 0 8 L 30 8"
             inkscape:label="SubminorXDiv1:0:3"
             id="path22" /><path
             style="fill:none;stroke:#000000;stroke-width:0.079375"
             d="M 0 9 L 30 9"
             inkscape:label="SubminorXDiv1:0:4"
             id="path23" /><path
             style="fill:none;stroke:#000000;stroke-width:0.079375"
             d="M 0 11 L 30 11"
             inkscape:label="SubminorXDiv2:0:1"
             id="path24" /><path
             style="fill:none;stroke:#000000;stroke-width:0.079375"
             d="M 0 12 L 30 12"
             inkscape:label="SubminorXDiv2:0:2"
             id="path25" /><path
             style="fill:none;stroke:#000000;stroke-width:0.079375"
             d="M 0 13 L 30 13"
             inkscape:label="SubminorXDiv2:0:3"
             id="path26" /><path
             style="fill:none;stroke:#000000;stroke-width:0.079375"
             d="M 0 14 L 30 14"
             inkscape:label="SubminorXDiv2:0:4"
             id="path27" /><path
             style="fill:none;stroke:#000000;stroke-width:0.079375"
             d="M 0 16 L 30 16"
             inkscape:label="SubminorXDiv3:0:1"
             id="path28" /><path
             style="fill:none;stroke:#000000;stroke-width:0.079375"
             d="M 0 17 L 30 17"
             inkscape:label="SubminorXDiv3:0:2"
             id="path29" /><path
             style="fill:none;stroke:#000000;stroke-width:0.079375"
             d="M 0 18 L 30 18"
             inkscape:label="SubminorXDiv3:0:3"
             id="path30" /><path
             style="fill:none;stroke:#000000;stroke-width:0.079375"
             d="M 0 19 L 30 19"
             inkscape:label="SubminorXDiv3:0:4"
             id="path31" /><path
             style="fill:none;stroke:#000000;stroke-width:0.079375"
             d="M 0 21 L 30 21"
             inkscape:label="SubminorXDiv4:0:1"
             id="path32" /><path
             style="fill:none;stroke:#000000;stroke-width:0.079375"
             d="M 0 22 L 30 22"
             inkscape:label="SubminorXDiv4:0:2"
             id="path33" /><path
             style="fill:none;stroke:#000000;stroke-width:0.079375"
             d="M 0 23 L 30 23"
             inkscape:label="SubminorXDiv4:0:3"
             id="path34" /><path
             style="fill:none;stroke:#000000;stroke-width:0.079375"
             d="M 0 24 L 30 24"
             inkscape:label="SubminorXDiv4:0:4"
             id="path35" /></g><rect
           x="0"
           y="0"
           width="30.0"
           height="25.0"
           style="fill:none;stroke:#000000;stroke-width:0.26458333333333334"
           inkscape:label="Border"
           id="rect35" /></g></g></g></svg>
